<svg width="20" height="20" viewBox="0 0 20 20" fill="none" xmlns="http://www.w3.org/2000/svg">
    <path d="M6.20708 17.4231C5.84681 17.4231 5.54222 17.2972 5.29333 17.0452C5.04444 16.7934 4.92 16.4873 4.92 16.1269C4.92 15.7666 5.0459 15.462 5.29771 15.2131C5.54965 14.9642 5.85576 14.8398 6.21604 14.8398C6.57632 14.8398 6.8809 14.9657 7.12979 15.2175C7.37868 15.4694 7.50313 15.7756 7.50313 16.1358C7.50313 16.4961 7.37722 16.8007 7.12542 17.0496C6.87347 17.2986 6.56736 17.4231 6.20708 17.4231ZM14.9506 17.4231C14.5903 17.4231 14.2858 17.2972 14.0369 17.0452C13.788 16.7934 13.6635 16.4873 13.6635 16.1269C13.6635 15.7666 13.7894 15.462 14.0413 15.2131C14.2932 14.9642 14.5993 14.8398 14.9596 14.8398C15.3199 14.8398 15.6244 14.9657 15.8733 15.2175C16.1222 15.4694 16.2467 15.7756 16.2467 16.1358C16.2467 16.4961 16.1208 16.8007 15.869 17.0496C15.617 17.2986 15.3109 17.4231 14.9506 17.4231ZM5.74188 5.08333L7.58333 9.33979H13.8542L15.6987 5.08333H5.74188ZM5.28854 4H17.2773L14.5929 10.4231H7.1875L6.08813 12.3398H16.2467V13.4231H4.19396L6.47271 9.50646L3.71167 3.08333H2V2H4.43438L5.28854 4Z" fill="#1D1D1B"></path>
</svg>