<svg width="20" height="20" viewBox="0 0 20 20" fill="none" xmlns="http://www.w3.org/2000/svg">
    <path d="M9.99935 9.74333C9.2806 9.74333 8.67039 9.49249 8.16872 8.99083C7.66692 8.48902 7.41602 7.87874 7.41602 7.15999C7.41602 6.44124 7.66692 5.83104 8.16872 5.32937C8.67039 4.82756 9.2806 4.57666 9.99935 4.57666C10.7181 4.57666 11.3283 4.82756 11.83 5.32937C12.3318 5.83104 12.5827 6.44124 12.5827 7.15999C12.5827 7.87874 12.3318 8.48902 11.83 8.99083C11.3283 9.49249 10.7181 9.74333 9.99935 9.74333ZM4.41602 15.4229V13.9035C4.41602 13.6483 4.49213 13.4023 4.64435 13.1656C4.79657 12.929 5.00949 12.7241 5.2831 12.551C6.00949 12.1334 6.77296 11.8132 7.57352 11.5904C8.37407 11.3676 9.18122 11.2562 9.99497 11.2562C10.8087 11.2562 11.6173 11.3676 12.4208 11.5904C13.2243 11.8132 13.9892 12.1334 14.7156 12.551C14.9892 12.7102 15.2021 12.9116 15.3543 13.1552C15.5066 13.3988 15.5827 13.6483 15.5827 13.9035V15.4229H4.41602ZM5.49935 14.3396H14.4993V13.9035C14.4993 13.8156 14.4677 13.7329 14.4043 13.6554C14.3409 13.5779 14.2534 13.5121 14.1421 13.4581C13.5351 13.0906 12.8794 12.8123 12.175 12.6231C11.4704 12.4341 10.7452 12.3396 9.99935 12.3396C9.25352 12.3396 8.52831 12.4341 7.82372 12.6231C7.11928 12.8123 6.46358 13.0906 5.85664 13.4581C5.74456 13.5351 5.65699 13.6087 5.59393 13.6792C5.53088 13.7496 5.49935 13.8244 5.49935 13.9035V14.3396ZM10.0037 8.65999C10.4175 8.65999 10.7702 8.5127 11.0618 8.21812C11.3535 7.92353 11.4993 7.56937 11.4993 7.15562C11.4993 6.74187 11.3521 6.38916 11.0575 6.09749C10.7629 5.80583 10.4087 5.65999 9.99497 5.65999C9.58122 5.65999 9.22852 5.80735 8.93685 6.10208C8.64518 6.39666 8.49935 6.75083 8.49935 7.16458C8.49935 7.57819 8.64664 7.93083 8.94122 8.22249C9.23581 8.51416 9.58997 8.65999 10.0037 8.65999Z" fill="#1D1D1B"></path>
</svg>